<svg width="105" height="44" viewBox="0 0 105 44" fill="none" xmlns="http://www.w3.org/2000/svg">
<g clip-path="url(#clip0_300_156)">
<path d="M28.4343 30.7564V25.6528H39.233V9.37351C38.9582 9.56848 38.7477 9.66918 38.5996 9.82774C28.969 20.1593 19.2654 30.4243 9.77658 40.8844C7.78605 43.0784 5.8449 44.2461 2.92675 43.7919C2.06783 43.6569 1.17027 43.7705 0 43.7705C1.79083 41.8121 3.36479 40.0852 4.94734 38.3647C16.416 25.8949 27.8911 13.4294 39.3511 0.94889C39.9416 0.306116 40.5278 -0.0859757 41.4597 0.0147255C42.3723 0.113284 43.3021 0.0361513 44.35 0.0361513V7.27807C53.8603 -1.82146 63.697 -1.77861 74.034 5.67542V0.235411C74.5708 0.235411 74.9853 0.235411 75.3997 0.235411C79.617 0.235411 83.8342 0.186132 88.0515 0.248267C94.3709 0.340397 99.3269 3.10647 102.539 8.47148C105.889 14.0636 105.754 19.9321 102.516 25.55C99.4257 30.9107 94.6587 33.7603 88.4015 33.9725C88.0493 33.9853 87.6929 33.9125 87.3386 33.8696C86.9843 33.8268 86.6321 33.7689 86.1962 33.7046V28.9952C87.461 28.826 88.7644 28.6996 90.0506 28.4725C96.836 27.2748 101.216 20.2385 99.1787 13.7358C97.9483 9.80631 93.4476 5.15691 88.1095 5.48687C85.2665 5.66256 82.4041 5.51901 79.4409 5.51901V16.7718H74.2616C73.83 13.6951 72.0177 11.4111 69.7888 9.41208C67.5643 7.41734 64.966 6.01823 61.9899 5.68827C56.2116 5.04764 51.4081 6.86669 47.8436 11.6425C45.662 14.5671 44.4573 17.7681 44.3199 21.4212C44.0129 29.6337 49.2973 36.2586 55.4321 38.0626C61.8052 39.9374 68.9965 37.317 72.4236 31.8813C72.6082 31.5899 72.7607 31.2771 73.0162 30.8186H63.5145V25.7771H79.5375V43.7598H74.5687V37.6448C74.0856 38.0498 73.8257 38.2469 73.5895 38.4654C67.0962 44.5182 57.996 45.7224 50.1992 41.4865C46.0807 39.2496 43.0831 35.9243 41.1956 31.6435C40.88 30.9279 40.4956 30.7286 39.7569 30.735C36.3986 30.7714 33.0381 30.7522 29.6797 30.7522C29.2954 30.7522 28.9089 30.7522 28.43 30.7522L28.4343 30.7564Z" fill="#0245AD"/>
</g>
<defs>
<clipPath id="clip0_300_156">
<rect width="105" height="44" fill="white"/>
</clipPath>
</defs>
</svg>
