<svg width="170" height="49" viewBox="0 0 170 49" fill="none" xmlns="http://www.w3.org/2000/svg">
<g clip-path="url(#clip0_300_155)">
<path d="M169.812 17.7788L170 17.7825V19.2653C169.452 19.5258 169.181 20.0449 168.877 20.523C168.513 21.0923 168.117 21.6319 167.694 22.1584C166.056 24.1956 163.978 25.0645 161.372 25.0031C158.903 24.9436 156.422 25.1054 154.147 26.2887C154.12 26.3036 154.088 26.3073 154.061 26.3203C150.641 27.9799 151.033 28.9901 152.743 31.1334C153.315 31.8497 153.835 32.6107 154.377 33.3512C154.376 33.6284 154.396 33.8721 154.598 34.1158C155.64 35.3661 156.921 36.3614 158.221 37.288C158.692 37.6247 159.115 38.382 159.927 38.1401L159.932 38.1438C160.179 38.8471 160.722 39.3141 161.333 39.6192C162.224 40.0638 162.978 40.6592 163.623 41.3941C164.016 41.8425 164.46 42.3932 164.287 43.0202C163.738 45.0109 163.015 45.7179 160.753 45.9877C158.92 46.2054 157.162 45.4109 155.333 45.5951C155.222 45.6063 155.104 45.5207 154.987 45.4928C154.092 45.2881 153.194 44.903 152.303 44.9235C150.201 44.97 148.162 44.3169 146.053 44.477C145.331 44.5309 145.094 43.9951 145.421 43.3141C145.537 43.0741 145.545 42.8453 145.51 42.5978L145.517 42.5923C146.251 42.6816 146.848 42.1197 147.623 42.2146C148.587 42.3337 149.579 42.209 150.556 42.2574C151.451 42.3002 152.333 42.1755 153.244 42.542C153.869 42.7932 154.611 42.3002 155.22 41.9188C155.458 41.7699 155.526 41.5039 155.358 41.2732C155.075 40.8825 154.928 40.4229 154.576 40.0527C153.374 38.7894 151.832 37.9168 150.715 36.5661C150.505 36.3131 150.236 36.3335 149.96 36.3354C150.03 35.7642 149.782 35.5186 149.217 35.6024C149.329 35.0517 148.952 34.7577 148.613 34.4544C147.071 33.0739 146.119 31.2302 145.659 29.3306C145.228 27.5538 145.175 25.5203 146.366 23.8589C147.019 22.9491 147.866 22.0989 149.009 21.8868C149.774 21.7435 150.429 21.4681 151.07 21.0774C152.2 21.3044 153.01 20.4449 153.976 20.136C154.582 19.9425 155.355 19.896 155.806 19.2839C157.252 19.2541 158.414 18.3388 159.763 17.9592C161.112 17.5797 162.395 17.0122 163.829 17.016C164.129 17.016 164.403 16.9304 164.696 16.8374C165.656 16.536 166.632 16.6364 167.633 16.815C168.471 16.9639 168.951 17.7825 169.809 17.7806L169.812 17.7788Z" fill="#C70405"/>
<path d="M60.6312 0.013091C61.0656 0.0149515 61.5018 0.016812 61.9361 0.0186725C62.249 0.53031 62.6852 1.00474 63.092 1.36009C63.7123 1.9015 63.9018 2.45407 63.9552 3.20199C64.0252 4.18991 63.6699 5.22807 64.2608 6.16763C64.3104 6.24763 64.2902 6.44856 64.2258 6.51554C63.7933 6.95648 63.9092 7.51649 63.9626 8.00766C64.1356 9.5556 63.3662 11.0105 63.5613 12.5529C63.5724 12.6366 63.5356 12.7371 63.4951 12.8171C62.9871 13.8385 63.0313 14.9994 62.9153 16.0674C62.7828 17.2674 62.2582 18.4227 62.446 19.6618C62.4589 19.7418 62.3871 19.833 62.3631 19.9204C62.1036 20.8377 61.7374 21.727 61.73 22.7075C61.7263 23.1335 61.9067 23.6377 61.2091 23.794C60.8981 23.8628 60.9975 24.2536 61.0656 24.5215C61.1153 24.7205 61.4097 24.8824 61.2625 25.0964C60.7582 25.835 61.1226 26.6555 60.9975 27.4257C60.114 27.6359 60.0625 27.848 60.6367 28.916C60.6441 29.9132 60.3827 30.8993 60.3385 31.8593C60.2594 33.5951 60.0275 35.344 60.2355 37.1022C60.3165 37.7794 60.4085 38.3506 60.9938 38.745C61.2312 39.3683 62.1055 39.9004 62.6061 39.5915C63.1288 39.2696 63.6534 39.2455 64.1834 39.3031C65.735 39.4724 67.005 38.3599 68.5695 38.3878C69.0885 38.3971 69.8468 38.3952 70.3934 38.092C71.2382 37.6231 72.2009 37.6287 73.0751 37.504C74.6672 37.2771 76.3126 37.4036 77.9341 37.4519C78.6336 37.4724 79.39 37.7217 79.6827 38.3971C80.0342 39.2064 79.5778 40.0659 79.1618 40.6911C78.6483 41.465 77.728 41.8948 76.8445 42.2539C75.8175 42.6725 74.7003 42.7767 73.6678 43.1172C72.6003 43.4688 71.5787 43.8335 70.4395 43.7553C70.1413 43.7349 69.8376 43.7125 69.5413 43.8558C68.6983 44.2632 67.7394 44.3972 66.8651 44.4363C64.0528 44.5646 61.2331 44.4865 58.4152 44.4791C58.1833 44.4791 57.9201 44.5553 57.7415 44.3042C57.2648 43.6307 56.6041 43.2065 56.466 42.159C56.2746 40.7115 56.1219 39.2417 55.8734 37.7924C55.7077 36.8305 55.9893 35.878 56.1789 34.9179C56.4053 33.77 56.3354 32.5737 56.4845 31.3923C56.6703 29.9318 57.1912 28.4713 56.9575 26.9569C56.9391 26.8378 56.9335 26.6945 56.9796 26.5903C57.7121 24.9364 57.7029 23.1131 57.9624 21.3809C58.1704 19.993 58.6287 18.5827 58.4281 17.1334C58.4115 17.0125 58.4207 16.8841 58.4465 16.765C58.9011 14.685 59.0925 12.5715 59.1348 10.4524C59.1569 9.37327 59.1256 8.30348 58.8808 7.19462C58.5643 5.75087 58.7962 4.18433 58.8017 2.66989C58.8017 2.55453 58.8293 2.39081 58.9066 2.33127C59.698 1.71917 59.9723 0.721942 60.6294 0.0112305L60.6312 0.013091Z" fill="#D8251C"/>
<path d="M83.5184 34.153C83.3564 31.2078 84.2307 28.285 85.2816 25.4086C85.7583 24.1026 87.6688 23.7695 88.659 24.7463C89.5627 25.6375 89.8811 26.7817 89.9916 28.0078C90.1351 29.5892 89.9216 31.1539 89.7909 32.7223C89.71 33.7102 89.6547 34.687 89.8425 35.673C89.9695 36.3354 90.0615 37.0256 90.0265 37.6954C89.9327 39.5168 89.9014 41.3029 90.3725 43.1094C90.7646 44.6146 90.0652 45.2639 88.4897 45.2025C86.7393 45.1337 85.5117 44.2369 84.9025 42.4043C84.0356 39.7885 83.4871 37.1056 83.5165 34.1493L83.5184 34.153Z" fill="#D32A22"/>
<path d="M135.622 24.0879C135.635 24.2107 135.65 24.3335 135.663 24.4563C135.661 24.8563 135.648 25.2545 135.657 25.6545C135.7 27.4591 135.486 29.2099 134.588 30.8155C134.557 30.7894 134.527 30.7634 134.496 30.7374C134.516 30.4601 134.461 30.1476 134.57 29.9131C135.401 28.1326 135.317 26.2387 135.232 24.3596C135.201 23.6581 135.028 22.9102 134.719 22.2814C133.896 20.6032 133.156 18.8953 131.693 17.5724C130.787 16.7538 129.979 15.965 128.827 15.4478C127.64 14.9138 126.736 15.3659 125.924 15.9408C124.618 16.8655 124.003 18.4153 123.136 19.7157C121.651 21.9409 121.305 24.607 121.007 27.167C120.811 28.8415 120.414 30.5327 120.55 32.2499C120.204 32.4341 119.994 32.2369 119.761 32.0044C119.164 31.4146 118.647 30.7764 117.705 30.5922C117.278 30.5085 116.806 30.516 116.396 30.3504C115.126 29.8406 113.825 29.5745 112.45 29.6415C111.506 29.688 111.058 30.088 110.99 31.0778C110.977 31.262 111.022 31.4722 110.948 31.6267C110.457 32.6537 110.582 33.6304 110.9 34.7058C111.082 35.3179 111.34 35.9672 111.351 36.6296C111.373 37.9059 111.509 39.2063 110.976 40.4213C110.661 41.1375 110.394 42.0845 109.557 42.1757C108.863 42.252 108.552 41.4278 108.266 40.8101C107.712 39.6138 107.278 38.3394 106.729 37.1784C106.085 35.8184 105.78 34.3579 105.218 32.9904C104.241 30.6127 103.286 28.2201 102.288 25.8442C101.904 24.927 101.18 24.1214 101.103 23.1205C100.994 21.7176 100.466 20.4283 100.179 19.0776C100.08 18.6087 99.7667 18.0245 99.1114 17.699C98.1452 17.219 97.201 17.4831 96.2494 17.4459C95.9347 17.4329 95.6844 17.7343 95.6015 18.0264C95.088 19.8106 94.7273 21.6135 95.2371 23.4665C95.3512 23.8814 95.7801 24.0842 95.9568 24.5084C96.52 25.8666 97.2654 27.1466 97.9482 28.4378C98.9035 30.2443 99.9765 31.9988 100.952 33.8035C101.506 34.8267 102.215 35.7905 102.209 37.0351C102.185 37.0575 102.161 37.0779 102.137 37.0984C99.7317 32.5625 97.258 28.0619 94.9573 23.474C94.1144 21.7921 94.3647 19.8702 95.077 18.1622C95.839 16.3334 98.9329 16.3092 100.111 18.0301C100.645 18.8115 100.884 19.712 101.042 20.6218C101.379 22.5493 101.951 24.3744 102.826 26.1363C104.758 30.0304 106.244 34.1104 107.549 38.2594C107.874 39.2938 108.322 40.2743 108.958 41.1562C109.485 41.8855 109.626 41.8817 110.087 41.0817C110.814 39.8166 111.16 38.4789 110.865 36.9998C110.648 35.9114 110.488 34.81 110.341 33.7104C110.234 32.9141 110.217 32.1123 110.374 31.3122C110.705 29.608 111.461 28.9401 113.166 29.0741C115.161 29.2322 117.014 30.0136 118.916 30.5792C119.056 30.6201 119.172 30.7429 119.302 30.8248C119.6 31.0127 119.762 31.6099 120.09 31.4611C120.524 31.2639 120.292 30.6871 120.316 30.2797C120.478 27.4387 120.848 24.633 121.688 21.9074C121.897 21.6228 122.035 21.3102 122.046 20.9493C122.387 20.499 122.586 19.9818 122.759 19.4516L122.764 19.4385C122.797 19.3827 122.829 19.3269 122.862 19.2692C122.958 19.0906 123.053 18.912 123.151 18.7334C123.55 18.1641 123.95 17.5948 124.351 17.0255C124.439 16.9101 124.526 16.7948 124.614 16.6794C124.949 16.4654 125.205 16.1771 125.409 15.8385L125.435 15.8087C125.954 15.4775 126.473 15.1482 126.992 14.817L127.542 14.7612C127.728 14.7631 127.914 14.765 128.1 14.7668C128.284 14.7836 128.466 14.8003 128.65 14.817C129.077 15.0012 129.506 15.1836 129.933 15.3678C130.045 15.4403 130.158 15.511 130.27 15.5836C130.71 15.9426 131.15 16.3036 131.59 16.6627C131.711 16.791 131.833 16.9176 131.952 17.0459C132.315 17.4831 132.677 17.9204 133.04 18.3557C133.195 18.7874 133.495 19.1148 133.796 19.4423L133.802 19.4516C134.295 20.4302 134.789 21.4107 135.282 22.3893L135.286 22.4097C135.368 22.9753 135.407 23.5502 135.632 24.0861L135.622 24.0879Z" fill="#BD3F38"/>
<path d="M2.74792 27.8426C3.25591 27.8724 3.47126 27.757 3.40684 27.1226C2.7424 20.7095 4.33815 14.981 8.51067 10.019C12.2488 5.57056 17.0379 3.0161 22.7031 2.38539C28.9996 1.68398 34.685 3.39378 39.4981 7.69526C39.5422 7.73433 39.6067 7.74921 39.66 7.77712C40.1054 8.26085 40.5177 8.78179 41.1177 9.09249C41.3165 9.60971 41.6938 9.96507 42.1484 10.2497L42.1705 10.2665C42.3767 10.8655 42.7853 11.3139 43.2325 11.7344C43.2325 11.7344 43.2675 11.7735 43.2675 11.7716C43.7663 12.6814 44.278 13.5856 44.7602 14.5047C45.6142 16.1363 46.0927 17.9113 46.6541 19.6527C46.9799 21.5318 47.1161 23.4202 47.0664 25.3291C47.0406 26.2835 46.9578 27.2268 46.8179 28.1682C46.7609 28.1794 46.7038 28.1868 46.6449 28.1887C46.6026 28.1645 46.5547 28.1515 46.5069 28.1496C46.4424 28.0882 46.3799 28.0287 46.3154 27.9673C46.3081 27.9115 46.2989 27.8575 46.2915 27.8017C46.3909 26.8752 46.3118 25.9635 46.586 25.0091C46.8934 23.9374 46.4351 22.7281 46.378 21.6025C46.2749 19.5708 45.5884 17.8089 44.8761 15.9745C44.1142 14.0117 43.0503 12.2535 41.7951 10.6181C41.4693 10.192 40.7367 9.78832 40.5398 9.39203C39.914 8.13433 38.6772 7.65246 37.733 6.84873C37.1937 6.38918 36.6158 5.86824 35.9384 5.50359C33.9488 4.4338 31.8156 3.83286 29.6548 3.27843C28.0867 2.87656 26.5112 2.56213 24.886 2.58446C24.0467 2.59562 23.2958 3.10168 22.4086 2.96028C20.9509 2.72772 19.6717 3.45703 18.3465 3.89053C17.3379 4.21984 16.3661 4.62171 15.4035 5.1073C14.3378 5.64498 13.3881 6.29058 12.4734 7.02547C12.1881 7.06455 11.7997 6.90268 11.7463 7.39944L11.7427 7.40316C11.5016 7.40316 11.3801 7.52781 11.3764 7.76967C11.1371 7.77526 11.0138 7.89619 11.0064 8.13805C10.6844 8.1455 10.5684 8.4469 10.3549 8.60876C9.88923 8.96784 9.71806 9.5911 9.2837 9.9446C8.48306 10.5939 7.92906 11.4256 7.30695 12.2237C6.67933 13.0312 6.58362 14.0972 5.95415 14.8489C5.30076 15.6303 5.00995 16.5624 4.80749 17.4685C4.50933 18.808 4.0952 20.1178 3.89458 21.5039C3.66636 23.0742 3.70133 24.6091 3.69396 26.1514C3.6866 27.5505 4.09336 27.7161 5.49586 27.8184C8.04317 28.0045 10.3034 27.0128 12.6151 26.2147C13.0826 26.0528 13.4544 25.5914 13.1672 25.1244C12.3924 23.8611 12.639 22.3672 12.1586 21.035C11.9948 20.5792 11.7132 20.142 11.7132 19.5745C11.7132 18.6778 11.1997 17.8722 11.0837 16.9568C10.9347 15.7773 10.4285 14.6386 10.3052 13.4591C10.1156 11.6358 10.9807 10.2479 12.4752 9.24691C12.8617 9.15389 13.1433 8.72039 13.6108 8.89156L13.2169 9.25435C12.9813 9.30087 12.7973 9.42738 12.6556 9.61901C12.5948 9.67669 12.5341 9.73622 12.4734 9.7939C12.4016 9.8646 12.328 9.93344 12.2562 10.0041L12.0868 10.1102C11.7003 10.3279 11.4519 10.6572 11.323 11.0814C11.0249 11.4163 10.9365 11.8386 10.8261 12.2553C10.5389 13.3289 10.9126 14.3317 11.1537 15.34C12.0095 18.9308 12.8948 22.5141 13.7691 26.0993C12.4273 26.8286 10.9604 27.2324 9.54137 27.7589C8.33029 28.0547 7.09713 28.2575 5.85844 28.2482C4.81854 28.2389 3.74366 28.3133 2.75345 27.8408L2.74792 27.8426Z" fill="#D3843C"/>
<path d="M18.3447 21.3289C18.3318 21.3847 18.3392 21.4387 18.3686 21.4889C18.3705 22.3763 18.7809 23.208 18.7312 24.1029C18.6042 24.1568 18.4791 24.2127 18.3521 24.2666C18.3373 23.8964 18.3944 23.5057 18.2932 23.1633C17.9582 22.0359 17.6066 20.9159 17.625 19.7214C17.6287 19.5075 17.5993 19.26 17.6913 19.0851C18.514 17.5186 19.7858 16.5065 21.5436 16.3353C22.3092 16.2609 22.5135 16.0432 22.3644 15.3325C22.0258 13.7213 22.0497 12.058 21.6632 10.4524C21.5417 9.94448 20.3748 8.95284 19.8429 8.87469C18.6705 8.70353 17.5514 9.044 16.4581 9.31749C15.7366 9.49796 14.9839 9.82913 14.3323 10.218C13.4728 10.7315 12.893 12.9269 13.2611 13.8701C13.7525 15.1297 13.8851 16.4841 14.3213 17.753C14.5624 18.4544 14.428 19.3809 14.8201 19.8554C15.6943 20.9159 15.5452 22.1959 15.6888 23.3122C15.8636 24.6834 16.3808 25.9318 16.6459 27.2564C16.887 28.4639 17.2551 29.6863 17.5661 30.8919C17.8533 31.9989 18.5103 32.9738 18.4938 34.2426C18.4864 34.8361 18.5987 35.6566 18.8361 36.3506C19.2226 37.4799 19.4803 38.6539 19.8245 39.7981C20.2644 41.2641 20.1595 42.907 21.2012 44.1833C21.2693 44.267 21.2693 44.4158 21.2859 44.5368C21.4405 45.6326 21.7939 45.9619 22.878 45.9712C24.286 45.9824 25.6977 45.9321 27.1038 45.9917C27.9689 46.0289 28.0333 45.5396 27.8806 44.9498C27.5419 43.6344 27.3744 42.2874 27.102 40.9702C26.9308 40.1404 26.9014 39.2604 26.5793 38.4269C26.2425 37.5562 26.3492 36.5627 26.0455 35.6194C25.8468 34.9998 25.6498 34.2687 25.6001 33.5431C25.567 33.0519 24.9154 32.8007 24.4167 33.0724C24.0596 33.2677 23.8682 33.2156 23.6491 32.957C23.432 32.7003 23.1651 32.5942 22.8375 32.6277C22.4528 32.6649 22.1473 32.5384 21.8436 32.2779C20.7595 31.3495 19.7361 30.4416 19.4159 28.9011C19.184 27.7923 18.7018 26.7355 18.7146 25.569L19.011 25.4015C19.1748 25.9541 19.1306 26.5606 19.4472 27.0722H19.4435C19.4288 27.5541 19.5337 28.0062 19.7987 28.4137C19.7877 28.462 19.7987 28.5048 19.8319 28.542C19.8153 28.9067 19.9589 29.2081 20.1926 29.4742C20.2 29.7793 20.3583 30.0081 20.5626 30.2146C20.603 30.2853 20.6417 30.356 20.6822 30.4267C20.7669 30.5365 20.8515 30.6481 20.938 30.7579L20.9417 30.7616C20.984 30.957 21.0926 31.0928 21.284 31.156H21.2822C21.3356 31.3495 21.4607 31.4723 21.654 31.5263H21.6522C21.7147 31.7123 21.8528 31.8165 22.0405 31.8593C22.07 31.9002 22.1086 31.9189 22.1583 31.9133C23.0399 32.5068 24.0136 32.6742 25.0424 32.5068C25.451 32.4398 25.8302 32.3635 26.086 32.7989C26.0915 32.8621 26.0989 32.9235 26.1044 32.9868C26.2682 34.2426 26.4044 35.504 26.8112 36.7115C26.8499 37.0464 26.8719 37.3869 26.9308 37.718C27.4075 40.3525 27.8842 42.9888 28.383 45.6196C28.4695 46.0773 28.4143 46.2856 27.8953 46.3545C25.878 46.6187 23.8719 46.5442 21.8601 46.3061C21.1515 46.2224 20.8092 45.8782 20.6417 45.1824C19.8981 42.0697 19.1232 38.9646 18.3447 35.8613C17.2514 31.504 16.1452 27.1504 15.0446 22.795C15.0372 22.3224 14.9066 21.8833 14.6931 21.4684L14.6415 21.1317C14.6802 20.7131 14.5532 20.341 14.3268 19.9986H14.3323C14.3213 19.4665 14.2127 18.9605 13.9532 18.4935L13.69 18.3595C13.7176 18.3391 13.7415 18.3167 13.7617 18.2907C14.1004 17.8125 13.7268 17.4274 13.5943 17.0125L13.5427 16.6814C13.5114 16.2795 13.4452 15.8869 13.2133 15.5427L13.1488 15.2116C13.1728 14.7967 13.0384 14.4208 12.8709 14.0525C12.7918 13.1948 12.6409 12.3389 12.8231 11.4775C12.8562 11.4366 12.8691 11.3901 12.8654 11.3361C13.0421 11.1724 13.1544 10.9715 13.2022 10.7352V10.7315L13.7894 10.0263L13.782 10.0301L13.9918 9.86076V9.87192C14.1483 9.86262 14.2624 9.78634 14.3268 9.63936L14.3231 9.64308C14.6084 9.59657 14.8385 9.44587 15.0501 9.25796C15.398 9.23191 15.7035 9.09423 15.9851 8.8933H16.0679L16.1452 8.86539C17.3655 8.64771 18.5895 8.46724 19.8337 8.48399C19.9533 8.49329 20.0748 8.50259 20.1944 8.5119C20.4282 8.60306 20.6619 8.69609 20.8975 8.78725C20.9656 8.8226 21.0337 8.85795 21.1 8.8933C21.2804 9.09237 21.4607 9.28959 21.643 9.48866C21.6798 9.54634 21.7166 9.60401 21.7534 9.66355C21.9669 10.2719 22.1804 10.8803 22.3939 11.4887C22.4068 11.6078 22.4197 11.7287 22.4344 11.8478C22.4583 12.1808 22.473 12.5157 22.5062 12.8469C22.6387 14.1176 22.7786 15.3902 22.9166 16.6609C22.8632 16.6609 22.8154 16.6739 22.773 16.7037C21.8141 16.6776 20.9123 16.9195 20.0527 17.3176C19.3607 17.6377 18.6852 17.993 18.4643 18.8265C18.4643 18.8265 18.4459 18.8433 18.4478 18.8433C17.7208 19.6451 18.0889 20.4917 18.3484 21.3345L18.3447 21.3289Z" fill="#D3843C"/>
<path d="M60.6312 0.0128131C59.9741 0.721664 59.6999 1.72075 58.9085 2.33286C58.8311 2.39239 58.8035 2.55612 58.8035 2.67147C58.7999 4.18592 58.5661 5.75246 58.8827 7.19621C59.1256 8.30692 59.1569 9.37485 59.1367 10.4539C59.0943 12.5731 58.9029 14.6884 58.4483 16.7666C58.4225 16.8857 58.4133 17.0159 58.4299 17.135C58.6305 18.5862 58.1722 19.9965 57.9643 21.3825C57.7047 23.1146 57.7139 24.9379 56.9814 26.5919C56.9354 26.698 56.9409 26.8394 56.9593 26.9584C57.1949 28.4729 56.6722 29.9334 56.4863 31.3939C56.3372 32.5753 56.4072 33.7697 56.1808 34.9195C55.9912 35.8795 55.7096 36.8321 55.8752 37.794C56.1237 39.2433 56.2765 40.7113 56.4679 42.1606C56.6059 43.2081 57.2648 43.6304 57.7434 44.3058C57.9219 44.5569 58.1851 44.4806 58.417 44.4806C61.2349 44.4862 64.0546 44.5644 66.867 44.4378C67.7412 44.3988 68.7001 44.2648 69.5431 43.8574C69.8394 43.7141 70.145 43.7364 70.4413 43.7569C71.5788 43.835 72.6021 43.4704 73.6696 43.1188C74.7022 42.7783 75.8194 42.6741 76.8464 42.2555C77.728 41.8945 78.6483 41.4648 79.1636 40.6927C79.5778 40.0675 80.0361 39.2098 79.6845 38.3987C79.3919 37.7252 78.6354 37.4759 77.936 37.4535C76.3145 37.4052 74.6672 37.2768 73.077 37.5056C72.2027 37.6303 71.2401 37.6228 70.3953 38.0935C69.8486 38.3968 69.0903 38.4005 68.5713 38.3894C67.0068 38.3596 65.7369 39.4722 64.1853 39.3047C63.6552 39.247 63.1307 39.2694 62.6079 39.5931C62.1073 39.9019 61.2349 39.3698 60.9956 38.7466L61.1355 38.607C61.5055 38.8303 61.7318 39.3103 62.3098 39.1447C63.0939 38.9196 63.9295 38.9177 64.697 38.6033L65.043 38.5326C66.243 38.3149 67.4431 38.101 68.6412 37.8777C71.4039 37.3605 74.1426 36.6461 76.9918 36.8544C78.0335 36.9307 79.0532 37.1168 79.9569 37.7103C80.2956 37.9317 80.452 38.1512 80.3839 38.6126C80.1502 40.1847 79.4489 41.4052 78.0115 42.1271C77.4133 42.4285 76.7967 42.6964 76.1893 42.9792L76.1231 42.9699L76.0752 43.0183C74.1113 43.5039 72.1493 43.9895 70.1855 44.4751L69.8266 44.5197C69.5542 44.529 69.2781 44.5123 69.0094 44.5513C65.1571 45.1113 61.3012 45.1113 57.4379 44.6946C56.952 44.6425 56.6556 44.4639 56.5121 43.9783C56.3225 43.3364 56.0832 42.7094 55.8642 42.0769C55.8495 41.9541 55.8329 41.8294 55.8182 41.7066C55.7077 40.6573 55.5992 39.6061 55.4887 38.5568C55.4979 37.8182 55.5071 37.0796 55.5163 36.3428C55.6801 35.1074 55.8219 33.8702 55.8274 32.6199C55.8476 32.4395 55.8679 32.259 55.89 32.0785C56.0869 30.7111 56.2875 29.3436 56.4808 27.9743C56.8213 25.5668 57.1581 23.1593 57.4968 20.7518C57.5225 20.6365 57.5501 20.5193 57.5759 20.4039C57.7673 19.1257 58.0047 17.8532 58.1391 16.5675C58.4741 13.3489 58.9986 10.1395 58.4428 6.8855C58.1557 5.20733 58.0139 3.50869 58.6747 1.86215C58.7778 1.66866 58.879 1.47331 58.9821 1.27981C59.1477 1.22958 59.1993 1.09562 59.2232 0.943063L59.214 0.956087C59.5803 0.637941 59.9465 0.321656 60.3146 0.00537109L60.6367 0.0165341L60.6312 0.0128131Z" fill="#BD3F38"/>
<path d="M128.967 37.4167C128.415 38.5311 128.691 39.4167 129.777 40.28C131.625 41.7498 133.728 41.7665 135.895 41.4186C136.981 41.2437 138.039 40.9386 139.094 40.6186C139.848 40.3898 140.71 40.0698 141.299 40.8716C141.932 41.733 142.112 42.747 141.604 43.7554C140.914 45.1266 139.631 45.7555 138.251 45.9024C135.236 46.2243 132.203 46.2652 129.226 45.4857C127.715 45.0894 126.401 44.3303 125.328 43.1712C123.767 41.4856 121.951 39.9563 121.209 37.6958C120.846 36.5888 120.467 36.1106 119.238 36.2669C118.387 36.3767 117.489 36.0306 116.608 35.9711C114.844 35.8539 114.379 36.1795 113.961 37.9265C113.538 39.6939 113.206 41.4837 112.835 43.2642C112.582 44.4736 112.277 45.6643 111.739 46.7843C111.456 47.3741 111.092 47.9043 110.598 48.3341C109.527 49.2681 108.226 49.2178 107.243 48.1927C106.094 46.9927 105.413 45.5006 104.802 43.988C103.88 41.707 103.023 39.4 102.137 37.1041C102.161 37.0837 102.185 37.0613 102.207 37.0409C102.551 37.2027 102.774 37.452 102.908 37.8297C103.429 39.2958 103.923 40.7749 104.53 42.2056C105.257 43.921 105.947 45.6792 107.017 47.2011C107.918 48.4848 108.301 49.0951 109.897 48.1834C110.954 47.5787 111.59 46.5983 111.728 45.348C111.765 45.015 111.8 44.7173 111.962 44.3917C112.146 44.0252 112.461 43.6903 112.463 43.2345C112.472 41.867 112.822 40.5665 113.155 39.2511C113.267 38.8083 113.574 38.4586 113.576 37.9693C113.58 36.4716 114.723 35.5618 116.155 35.5599C117.62 35.5599 119.085 35.8836 120.552 35.5897C120.753 35.6139 120.811 35.7832 120.931 35.9097C121.347 36.3506 121.038 37.119 121.647 37.4483C121.702 38.04 121.868 38.5739 122.387 38.9311C122.871 39.6828 123.454 40.3265 124.069 40.9814C125.07 42.0456 126.074 43.0242 127.224 43.9396C128.722 45.1303 130.395 45.4503 132.144 45.5787C133.787 45.6996 135.447 45.562 137.097 45.6234C137.914 45.6531 138.608 45.2643 139.359 45.0987C139.879 44.9833 140.45 44.7266 140.886 44.2224C141.807 43.1545 141.459 41.3684 140.332 40.8865C139.482 40.5237 138.803 41.1302 138.087 41.2977C136.377 41.6977 134.754 42.2168 132.926 41.9507C131.691 41.7721 130.622 41.3498 129.609 40.7265C128.779 40.213 128.302 39.426 128.269 38.3804C128.214 36.6557 129.637 35.8948 130.566 34.8734C131.338 34.0269 132.331 33.3422 132.979 32.3915C133.417 31.7477 133.889 31.1952 134.498 30.7412C134.527 30.7673 134.558 30.7933 134.59 30.8194C134.439 31.1673 134.288 31.5152 134.137 31.8631H134.139C133.531 32.5459 132.922 33.2287 132.315 33.9134V33.9171C132.055 34.0194 131.864 34.1943 131.733 34.438H131.731C131.36 34.6092 131.072 34.8752 130.857 35.2232L130.852 35.2287L130.666 35.4055C130.601 35.465 130.535 35.5227 130.471 35.5822H130.472C130.062 35.8371 129.744 36.185 129.484 36.5906L129.451 36.6334C129.219 36.853 129.013 37.0874 128.969 37.4223L128.967 37.4167Z" fill="#BD3F38"/>
<path d="M88.5375 9.04936C88.5375 8.64936 88.5541 8.24749 88.5338 7.84934C88.4676 6.53397 88.9553 5.81395 90.102 5.5572C91.2376 5.30232 92.5978 5.97768 92.9309 7.06793C93.3966 8.59354 93.8033 10.1359 93.7481 11.7657C93.7003 13.1722 92.9953 14.2085 92.0033 15.0774C91.4548 15.5574 90.3578 15.189 89.7376 14.3499C88.9627 13.3025 88.7234 12.0634 88.6038 10.8038C88.5486 10.2252 88.5946 9.63542 88.5946 9.04936H88.5394H88.5375Z" fill="#F58D50"/>
<path d="M60.9938 38.743C60.4085 38.3485 60.3165 37.7774 60.2355 37.1001C60.0275 35.342 60.2576 33.595 60.3385 31.8573C60.3827 30.8972 60.6441 29.9112 60.6367 28.9139C61.3453 28.5623 60.8576 27.9149 60.9975 27.4237C61.1226 26.6534 60.7582 25.8311 61.2625 25.0943C61.4097 24.8804 61.1153 24.7185 61.0656 24.5194C60.9975 24.2515 60.8981 23.8608 61.2091 23.792C61.9067 23.6376 61.7263 23.1315 61.73 22.7055C61.7374 21.7268 62.1036 20.8357 62.3631 19.9184C62.3871 19.831 62.4589 19.7398 62.446 19.6598C62.2601 18.4226 62.7846 17.2654 62.9153 16.0653C63.0331 14.9974 62.9889 13.8364 63.4951 12.815C63.5356 12.735 63.5724 12.6346 63.5613 12.5508C63.3662 11.0085 64.1337 9.55358 63.9626 8.00564C63.9074 7.51261 63.7914 6.95446 64.2258 6.51352C64.292 6.44654 64.3123 6.24561 64.2608 6.16561C63.6699 5.22605 64.0252 4.18789 63.9552 3.19997C63.9018 2.45019 63.7123 1.89948 63.092 1.35807C62.6852 1.00272 62.249 0.528289 61.9361 0.0166519C62.0374 0.0110704 62.1404 0.00362838 62.2417 -0.00195312C63.2613 0.360844 64.0657 0.922716 64.2589 2.10413C64.3565 2.70135 64.5184 3.28927 64.6509 3.88091L64.6601 7.2019C64.6215 7.31539 64.5571 7.42702 64.546 7.54424C64.2479 11.0085 63.6736 14.4337 63.081 17.857C62.6356 20.4263 62.0797 22.9771 61.7742 25.5725C61.7484 25.7511 61.7208 25.9316 61.695 26.1102C61.4742 26.7781 61.3398 27.459 61.3729 28.166C61.3545 28.2832 61.3361 28.4004 61.3159 28.5177C60.7913 31.0405 60.5778 33.6005 60.53 36.1699C60.5152 37.0053 60.4895 37.9057 61.1355 38.6034L60.9956 38.743H60.9938Z" fill="#BD3F38"/>
<path d="M2.74791 27.8422C3.73812 28.3148 4.81484 28.2422 5.85291 28.2496C7.09159 28.2589 8.3266 28.0562 9.53584 27.7603C9.50823 28.3538 9.45117 28.9659 10.3346 28.9213C9.57633 29.3864 8.64317 29.245 7.86646 29.645L7.87198 29.6413L3.84303 29.6748C3.21541 29.5892 2.58594 29.5185 1.962 29.4125C1.04725 29.2562 0.312871 28.8413 -0.00186157 27.8887C0.368088 26.964 0.609199 26.871 1.4945 27.2915C1.90678 27.4868 2.32827 27.6599 2.74607 27.8441L2.74791 27.8422Z" fill="#C70405"/>
<path d="M145.508 42.5942C145.541 42.8398 145.535 43.0686 145.42 43.3105C145.09 43.9933 145.328 44.5291 146.051 44.4733C148.16 44.3151 150.198 44.9663 152.301 44.9198C153.192 44.9012 154.09 45.2845 154.985 45.4891C155.103 45.5152 155.22 45.6026 155.331 45.5914C157.16 45.4091 158.918 46.2035 160.751 45.984C163.013 45.7142 163.737 45.0091 164.285 43.0165C164.458 42.3895 164.013 41.8388 163.621 41.3904C162.978 40.6555 162.222 40.0602 161.331 39.6155C160.72 39.3104 160.177 38.8453 159.93 38.1401C161.416 38.9997 162.807 40.0006 164.002 41.2304C165.318 42.5849 164.504 45.1691 162.577 45.9133C161.471 46.3412 160.313 46.384 159.146 46.3189C156.765 46.1849 154.436 45.638 152.071 45.3831C150.222 45.184 148.364 45.0631 146.511 44.9049C146.358 44.8919 146.198 44.8956 146.058 44.8435C145.613 44.6779 144.987 44.6742 144.891 44.0993C144.797 43.53 144.921 42.9328 145.51 42.5905L145.508 42.5942Z" fill="#BD3F38"/>
<path d="M151.07 21.0741C150.43 21.4648 149.774 21.742 149.009 21.8834C147.866 22.0955 147.019 22.9457 146.366 23.8555C145.175 25.5169 145.228 27.5505 145.659 29.3272C146.119 31.225 147.071 33.0706 148.613 34.4511C148.953 34.7562 149.329 35.0501 149.217 35.6009C145.795 32.8696 144.398 28.6072 145.552 24.4378C145.836 23.4127 146.544 22.7522 147.415 22.2518C148.561 21.5913 149.796 21.1429 151.072 20.8062C151.072 20.8955 151.072 20.9866 151.072 21.0759L151.07 21.0741Z" fill="#BD3F38"/>
<path d="M149.958 36.332C150.233 36.332 150.503 36.3097 150.713 36.5627C151.83 37.9135 153.373 38.786 154.574 40.0493C154.926 40.4196 155.073 40.8791 155.357 41.2698C155.524 41.5005 155.456 41.7666 155.219 41.9154C154.609 42.2968 153.868 42.7898 153.242 42.5387C152.331 42.1722 151.449 42.2968 150.555 42.254C149.577 42.2075 148.585 42.3322 147.621 42.2112C146.846 42.1145 146.25 42.6782 145.515 42.5889C146.25 41.6959 147.312 41.7573 148.283 41.7368C149.467 41.7108 150.654 41.8782 151.841 41.9545C152.48 41.9954 153.119 42.0419 153.759 42.0456C154.179 42.0456 154.676 42.0661 154.856 41.5731C155.031 41.0949 154.679 40.747 154.368 40.4586C153.113 39.2921 151.832 38.1535 150.573 36.9925C150.354 36.7916 150.054 36.6595 149.96 36.3358L149.958 36.332Z" fill="#BD3F38"/>
<path d="M169.812 17.779C168.955 17.779 168.474 16.9622 167.637 16.8134C166.635 16.6348 165.66 16.5343 164.699 16.8357C164.407 16.9287 164.131 17.0143 163.832 17.0143C162.399 17.0106 161.114 17.578 159.767 17.9576C158.417 18.3371 157.254 19.2525 155.809 19.2823C155.671 19.2637 155.533 19.2432 155.395 19.2246C158.929 17.6766 162.529 16.3724 166.442 16.298C167.766 16.272 168.947 16.6906 169.814 17.7808L169.812 17.779Z" fill="#BD3F38"/>
<path d="M46.6431 28.1884C46.702 28.1866 46.759 28.1791 46.8161 28.168C47.7271 28.795 48.6382 29.4238 49.5493 30.0527C51.1101 31.5634 52.6856 33.0574 53.7052 35.0314C54.2408 36.0677 54.5335 37.0853 53.7917 38.1458L53.7954 38.1403C53.4623 38.1979 53.2801 38.5942 52.9027 38.5533C52.9175 38.2016 53.2156 38.0547 53.3979 37.8165C53.6979 37.424 54.1267 37.0481 53.9298 36.4491C53.3795 34.7783 52.2402 33.4853 51.1542 32.1773C50.1235 30.9345 48.8388 29.9708 47.4621 29.1261C47.1234 28.9178 46.6928 28.6982 46.6412 28.1903L46.6431 28.1884Z" fill="#BD3F38"/>
<path d="M159.927 38.1405C159.117 38.3805 158.692 37.6233 158.221 37.2884C156.923 36.3619 155.642 35.3683 154.598 34.1162C154.396 33.8725 154.374 33.6288 154.377 33.3516C155.984 35.2344 158.033 36.5963 159.927 38.1405Z" fill="#BD3F38"/>
<path d="M155.393 19.2246C155.531 19.2432 155.67 19.2637 155.808 19.2823C155.355 19.8944 154.582 19.9428 153.976 20.1344C153.008 20.4432 152.198 21.3009 151.07 21.0758C151.07 20.9846 151.07 20.8953 151.07 20.806C152.511 20.2795 153.952 19.753 155.393 19.2265V19.2246Z" fill="#D32A22"/>
<path d="M52.8015 38.5959C52.0414 38.9977 51.5555 38.7242 51.2279 37.9745C50.937 37.3084 50.6794 36.62 50.2027 36.0526C50.2027 35.9986 50.1787 35.9651 50.1272 35.9521C50.0849 35.8795 50.0425 35.8051 50.0002 35.7326L50.0076 35.727C49.8567 35.4349 49.7039 35.1446 49.553 34.8525C50.1291 35.0014 50.4585 35.4367 50.6941 35.9335C51.1929 36.9903 51.596 38.1121 52.8015 38.5959Z" fill="#BD3F38"/>
<path d="M149.217 35.5989C149.782 35.5171 150.032 35.7608 149.96 36.3338C149.625 36.1794 149.364 35.9468 149.217 35.5989Z" fill="#BD3F38"/>
<path d="M130.664 35.3999L130.85 35.2231C130.787 35.2827 130.726 35.3422 130.664 35.3999Z" fill="#FAEBCC"/>
<path d="M130.469 35.5766C130.533 35.5171 130.599 35.4576 130.664 35.3999C130.599 35.4594 130.533 35.519 130.469 35.5766Z" fill="#FAEBCC"/>
<path d="M122.858 19.271C122.825 19.3268 122.794 19.3826 122.761 19.4403C122.794 19.3845 122.825 19.3287 122.858 19.271Z" fill="#FAEBCC"/>
<path d="M60.9975 27.4258C60.8576 27.917 61.3453 28.5644 60.6367 28.916C60.0625 27.8481 60.114 27.6379 60.9975 27.4258Z" fill="#D32A22"/>
<path d="M45.9639 31.5596C44.9939 33.861 43.9227 36.0955 42.3601 38.075C39.5146 41.6807 35.9072 44.1235 31.5819 45.5543C30.7279 45.837 30.4371 45.6194 30.2806 44.7412C29.2757 39.1002 28.2155 33.4703 27.194 27.8311C27.0818 27.2097 26.94 26.7371 26.1744 26.8748C25.4492 27.0051 24.9725 27.3046 25.1621 28.179C25.3185 28.9009 25.359 29.6526 25.5615 30.3577C25.7897 31.1503 25.3958 31.2582 24.794 31.2451C23.3381 31.2117 22.4105 30.4061 21.8399 29.1279C21.2583 27.8237 21.0006 26.4302 20.7889 25.0274C21.1239 25.0087 21.4479 24.9697 21.781 24.8915C23.9768 24.3743 26.1633 23.9985 28.4622 24.2329C31.2782 24.5213 33.9764 25.165 36.6176 26.1511C40.0355 27.4293 43.0411 29.4219 45.9657 31.5596H45.9639Z" fill="#E3791B"/>
<path d="M45.9639 31.5597C43.0393 29.4201 40.0337 27.4275 36.6158 26.1512C33.9746 25.1633 31.2764 24.5196 28.4603 24.2331C26.1615 23.9986 23.9749 24.3745 21.7792 24.8917C21.446 24.9698 21.1221 25.0108 20.7871 25.0275C20.7227 24.5959 20.6601 24.1624 20.5957 23.7307C21.7773 23.3177 22.9645 22.9289 24.1995 22.7112C25.8468 22.4209 27.4977 22.3372 29.1763 22.3707C31.0463 22.4098 32.8629 22.7782 34.7053 22.9847C36.8735 23.6507 39.0306 24.3447 41.1398 25.1875C41.1987 25.2024 41.2576 25.2098 41.3184 25.208C42.3969 25.9857 43.7 26.3224 44.8136 27.0331C45.305 27.2899 45.7946 27.5466 46.286 27.8034C46.2934 27.8592 46.3007 27.9131 46.3099 27.969C46.3743 28.0303 46.4369 28.0899 46.5013 28.1513C46.551 28.1531 46.5971 28.1662 46.6394 28.1904C46.6909 28.6983 47.1216 28.9178 47.4584 29.1262C48.8333 29.9727 50.1199 30.9364 51.1506 32.1774C52.2365 33.4853 53.3739 34.7802 53.9261 36.4491C54.123 37.0482 53.6942 37.424 53.3942 37.8166C53.212 38.0547 52.9138 38.1998 52.8991 38.5533C52.877 38.5961 52.8439 38.611 52.7978 38.598C51.5923 38.1143 51.1892 36.9924 50.6904 35.9356C50.4548 35.437 50.1272 35.0035 49.5493 34.8547C48.5002 33.5932 47.3609 32.4342 45.9621 31.5597H45.9639Z" fill="#D7261E"/>
<path d="M34.7071 22.983C32.8648 22.7783 31.0481 22.4081 29.1781 22.369C27.4996 22.3337 25.8468 22.4193 24.2013 22.7095C22.9681 22.9272 21.7792 23.316 20.5975 23.7291C20.3877 22.7095 20.1153 21.6992 19.9828 20.6704C19.7803 19.089 20.2846 18.4229 21.8362 18.0452C22.2485 17.9448 22.6718 17.8852 23.0896 17.8071C23.4669 18.9252 23.5074 20.1067 23.7338 21.2527C23.9933 22.5681 24.6228 22.7597 25.705 21.8611C26.0253 21.5765 25.856 21.2323 25.8063 20.9141C25.659 19.9411 25.4989 18.9699 25.3351 17.9987C24.9762 15.8796 24.6118 13.7605 24.2492 11.6414C24.2676 11.5818 24.262 11.526 24.2326 11.4721C24.2381 10.5362 24.1056 9.63948 23.4964 8.88226H23.4945C23.27 8.21248 22.6939 7.91294 22.1086 7.80317C19.6257 7.34362 17.1852 7.52781 14.8256 8.48783H14.7483L14.6783 8.51946C14.3691 8.5083 14.1299 8.65714 13.92 8.86737L13.6035 8.8897C13.136 8.71667 12.8544 9.15017 12.4678 9.24506C12.3464 8.99947 12.2267 8.75388 12.1053 8.5083C12.4936 8.37248 12.801 8.08783 13.2832 8.11945C14.6231 8.20876 15.7679 7.62642 16.8355 6.88408C17.0582 6.7278 17.2551 6.5957 17.4925 6.74082C18.6981 7.47014 20.1595 6.57524 21.3503 7.36781C22.1068 6.63105 22.5779 7.52223 23.1816 7.68224C23.5792 7.78828 24.0743 7.89619 24.1295 8.28876C24.2271 8.98087 24.7259 9.5539 24.6191 10.3037C24.5547 10.7521 24.5013 11.299 24.6946 11.6674C25.4161 13.0423 25.4584 14.5921 25.6167 16.0322C25.7695 17.4387 26.0658 18.8452 26.1431 20.2741C26.1688 20.7485 26.11 21.8667 26.964 21.8202C29.0143 21.7085 30.9874 22.4695 33.0322 22.2369C33.1832 22.2202 33.3378 22.2369 33.4905 22.2351C34.0501 22.2295 34.4605 22.4676 34.7053 22.983H34.7071Z" fill="#DE7A29"/>
<path d="M121.649 37.4481C121.04 37.1188 121.349 36.3523 120.933 35.9095C120.813 35.7829 120.754 35.6136 120.554 35.5895C120.554 34.4769 120.554 33.3624 120.554 32.2499C120.416 30.5326 120.815 28.8414 121.01 27.167C121.308 24.6069 121.654 21.9427 123.14 19.7157C124.007 18.4152 124.623 16.8654 125.928 15.9407C126.74 15.3658 127.644 14.9156 128.831 15.4477C129.983 15.9649 130.791 16.7537 131.696 17.5724C133.16 18.897 133.9 20.6031 134.722 22.2813C135.03 22.9083 135.205 23.6562 135.236 24.3595C135.319 26.2386 135.403 28.1326 134.573 29.9131C134.465 30.1475 134.52 30.4601 134.5 30.7373C133.89 31.1931 133.421 31.7438 132.981 32.3875C132.333 33.3383 131.339 34.0229 130.568 34.8694C129.639 35.8909 128.214 36.6518 128.271 38.3765C128.304 39.4221 128.781 40.2091 129.611 40.7226C130.622 41.3477 131.691 41.7682 132.928 41.9468C134.755 42.211 136.381 41.6938 138.089 41.2938C138.805 41.1263 139.484 40.5198 140.334 40.8826C141.462 41.3645 141.81 43.1524 140.888 44.2185C140.452 44.7245 139.879 44.9794 139.36 45.0948C138.61 45.2603 137.916 45.6492 137.098 45.6194C135.449 45.558 133.789 45.6957 132.146 45.5748C130.397 45.4464 128.724 45.1264 127.226 43.9357C126.075 43.0203 125.072 42.0435 124.071 40.9775C123.456 40.3226 122.873 39.6788 122.389 38.9272C122.352 38.2165 122.492 37.4909 122.293 36.7746C121.888 36.8769 121.929 37.3067 121.651 37.4444L121.649 37.4481ZM126.064 30.5438C126.064 31.1447 126.07 31.5447 126.063 31.9466C126.055 32.2964 126.169 32.488 126.55 32.3689C128.833 31.6526 130.929 30.6275 132.447 28.6721C132.904 28.0842 132.968 27.4386 132.619 26.7651C132.081 25.7288 131.586 24.6665 130.992 23.6636C130.548 22.9194 130.123 21.5911 129.451 21.6952C128.558 21.8329 128.004 23.0032 127.55 23.926C126.497 26.073 126.184 28.3856 126.066 30.5419L126.064 30.5438Z" fill="#D7261E"/>
<path d="M120.554 32.2501C120.554 33.3627 120.554 34.4771 120.554 35.5897C119.089 35.8818 117.624 35.5581 116.157 35.5599C114.725 35.5599 113.582 36.4716 113.578 37.9693C113.578 38.4567 113.269 38.8084 113.157 39.2512C112.824 40.5665 112.474 41.867 112.465 43.2345C112.461 43.6922 112.148 44.0252 111.964 44.3917C111.802 44.7154 111.767 45.015 111.73 45.348C111.592 46.5983 110.955 47.5788 109.899 48.1834C108.303 49.0951 107.92 48.4848 107.018 47.2011C105.949 45.6792 105.259 43.921 104.532 42.2056C103.926 40.7749 103.431 39.2958 102.91 37.8297C102.776 37.452 102.553 37.2046 102.209 37.0409C102.215 35.7962 101.506 34.8325 100.952 33.8092C99.9765 32.0045 98.9035 30.2501 97.9482 28.4435C97.2654 27.1505 96.52 25.8704 95.9568 24.5141C95.7801 24.0899 95.3512 23.8853 95.2371 23.4723C94.7291 21.6211 95.088 19.8164 95.6015 18.0321C95.6862 17.7419 95.9347 17.4386 96.2494 17.4517C97.201 17.4889 98.1433 17.2247 99.1115 17.7047C99.7667 18.0303 100.08 18.6145 100.179 19.0833C100.466 20.4341 100.994 21.7234 101.103 23.1262C101.18 24.1271 101.904 24.9327 102.288 25.85C103.286 28.224 104.241 30.6184 105.218 32.9962C105.782 34.3655 106.085 35.8241 106.729 37.1841C107.28 38.3451 107.712 39.6177 108.266 40.8158C108.552 41.4317 108.863 42.2559 109.557 42.1814C110.394 42.0903 110.661 41.1433 110.976 40.427C111.509 39.2121 111.373 37.9116 111.351 36.6353C111.34 35.973 111.081 35.3236 110.9 34.7115C110.582 33.6362 110.455 32.6594 110.948 31.6324C111.022 31.478 110.977 31.2677 110.99 31.0836C111.058 30.0956 111.506 29.6938 112.45 29.6473C113.825 29.5784 115.126 29.8445 116.396 30.3561C116.806 30.5217 117.278 30.5142 117.705 30.598C118.647 30.7822 119.164 31.4203 119.761 32.0101C119.996 32.2426 120.206 32.4399 120.55 32.2557L120.554 32.2501Z" fill="#D72828"/>
<path d="M34.7071 22.983C34.4623 22.4676 34.0519 22.2295 33.4924 22.235C33.3396 22.235 33.185 22.2202 33.0341 22.2369C30.9892 22.4713 29.0162 21.7104 26.9658 21.8201C26.1118 21.8667 26.1707 20.7485 26.1449 20.2741C26.0676 18.8452 25.7713 17.4405 25.6185 16.0321C25.4621 14.5921 25.4198 13.0423 24.6964 11.6674C24.5032 11.299 24.5565 10.752 24.621 10.3036C24.7277 9.55386 24.2271 8.98083 24.1314 8.28872C24.0762 7.89802 23.5811 7.78825 23.1835 7.6822C22.5798 7.5222 22.1086 6.63102 21.3522 7.36778C20.1595 6.57706 18.6999 7.4701 17.4944 6.74079C17.2569 6.59753 17.06 6.72963 16.8373 6.88405C15.7716 7.62639 14.625 8.20872 13.285 8.11942C12.8047 8.08779 12.4955 8.37245 12.1071 8.50826C11.6157 8.44687 11.7703 8.05988 11.7372 7.76592V7.39941L11.7427 7.39568C12.0298 7.36033 12.4145 7.51476 12.4697 7.02172C13.3844 6.28683 14.3342 5.63937 15.3998 5.10355C16.3624 4.61982 17.3342 4.21795 18.3429 3.88678C19.6681 3.45328 20.9472 2.72397 22.4049 2.95653C23.2939 3.09793 24.0449 2.59187 24.8823 2.58071C26.5075 2.55838 28.083 2.87281 29.6512 3.27468C31.812 3.82911 33.9452 4.43005 35.9348 5.49983C36.6121 5.86449 37.19 6.38543 37.7293 6.84498C38.6735 7.64871 39.9104 8.13058 40.5361 9.38828C40.7331 9.78457 41.4638 10.1902 41.7914 10.6144C43.0466 12.2497 44.1105 14.0079 44.8725 15.9707C45.5848 17.8052 46.2713 19.5671 46.3743 21.5987C46.4314 22.7225 46.8897 23.9337 46.5823 25.0053C46.3081 25.9598 46.3872 26.8714 46.2878 27.7979C45.7964 27.5412 45.3068 27.2844 44.8154 27.0277C44.5301 26.3635 44.208 25.7588 43.3098 25.9114C43.1976 25.93 43.0632 25.7477 42.9233 25.703C42.3896 25.5337 41.9515 25.05 41.3184 25.2007C41.2576 25.2007 41.1987 25.1951 41.1398 25.1802C41.1251 24.8583 40.8711 24.6332 40.6613 24.5607C38.714 23.8909 36.89 22.7355 34.7071 22.9737V22.983Z" fill="#E57817"/>
<path d="M11.7371 7.76758C11.7703 8.06154 11.6157 8.44852 12.1071 8.50992C12.2286 8.7555 12.3482 9.00109 12.4697 9.24668C10.9752 10.2476 10.1101 11.6337 10.2997 13.4588C10.423 14.6384 10.9291 15.7752 11.0782 16.9566C11.1942 17.872 11.7059 18.6776 11.7077 19.5743C11.7077 20.1418 11.9893 20.5808 12.1531 21.0348C12.6335 22.3669 12.3869 23.859 13.1617 25.1242C13.4488 25.5912 13.0771 26.0526 12.6096 26.2144C10.2978 27.0126 8.03765 28.0042 5.49034 27.8182C4.086 27.7159 3.67924 27.5503 3.68845 26.1512C3.69765 24.6088 3.66084 23.0739 3.88906 21.5037C4.09152 20.1176 4.50381 18.8078 4.80197 17.4682C5.00443 16.5603 5.29708 15.6282 5.94863 14.8486C6.5781 14.097 6.67381 13.0291 7.30143 12.2235C7.92354 11.4253 8.47754 10.5937 9.27818 9.94436C9.71439 9.59087 9.88372 8.96574 10.3494 8.60852C10.561 8.4448 10.677 8.1434 11.0009 8.13782C11.2402 8.1341 11.3635 8.0113 11.3709 7.7713C11.4924 7.7713 11.6138 7.7713 11.7371 7.7713V7.76758Z" fill="#E57818"/>
<path d="M10.3347 28.9235C9.45303 28.9682 9.50825 28.3542 9.53586 27.7626C10.9549 27.2342 12.4218 26.8323 13.7636 26.103C13.99 26.3747 13.9458 26.7226 14.0231 27.0351C13.0458 28.1663 11.6875 28.5421 10.3347 28.9235Z" fill="#BD3F38"/>
<path d="M12.4715 7.02344C12.4163 7.51833 12.0316 7.36205 11.7445 7.3974C11.7997 6.90064 12.1862 7.06251 12.4715 7.02344Z" fill="#DE7A29"/>
<path d="M11.3709 7.76953C11.3617 8.00954 11.2402 8.13233 11.0009 8.13605C11.0101 7.89605 11.1334 7.77325 11.3709 7.76953Z" fill="#DE7A29"/>
<path d="M11.7371 7.7674C11.6157 7.7674 11.4942 7.7674 11.3709 7.7674C11.3764 7.52553 11.496 7.40274 11.7371 7.40088C11.7371 7.52367 11.7371 7.6446 11.7371 7.7674Z" fill="#DE7A29"/>
<path d="M12.4623 9.98332C12.3924 9.99076 12.3224 9.9982 12.2507 10.0056C12.3224 9.93681 12.3942 9.86611 12.4678 9.79541C12.4678 9.85867 12.4642 9.92006 12.4623 9.98332Z" fill="#FDFDFC"/>
<path d="M18.7146 25.5651C18.7018 26.7316 19.1858 27.7884 19.4159 28.8973C19.7361 30.4378 20.7613 31.3457 21.8436 32.2741C22.1473 32.5345 22.4528 32.6611 22.8375 32.6239C23.1651 32.5922 23.4338 32.6964 23.6491 32.9532C23.8663 33.2118 24.0596 33.2639 24.4167 33.0685C24.9154 32.7969 25.5651 33.0462 25.6001 33.5392C25.6498 34.2667 25.8468 34.996 26.0455 35.6155C26.3492 36.5588 26.2425 37.5542 26.5793 38.423C26.9014 39.2565 26.9327 40.1366 27.102 40.9663C27.3726 42.2854 27.5401 43.6306 27.8806 44.9459C28.0333 45.5357 27.9689 46.025 27.1038 45.9878C25.6977 45.9283 24.286 45.9785 22.878 45.9674C21.792 45.9581 21.4405 45.6287 21.2859 44.5329C21.2693 44.412 21.2693 44.265 21.2012 44.1794C20.1576 42.9031 20.2644 41.2622 19.8245 39.7942C19.4822 38.6482 19.2226 37.476 18.8361 36.3467C18.5987 35.6527 18.4864 34.8323 18.4938 34.2388C18.5103 32.9699 17.8533 31.995 17.5661 30.888C17.2533 29.6805 16.887 28.4601 16.6459 27.2526C16.3808 25.9279 15.8636 24.6795 15.6888 23.3083C15.5471 22.192 15.6962 20.9101 14.8201 19.8515C14.4299 19.3771 14.5624 18.4506 14.3213 17.7491C13.8851 16.4803 13.7525 15.1258 13.2611 13.8663C12.893 12.923 13.4728 10.7258 14.3323 10.2141C14.9839 9.82528 15.7366 9.49411 16.4581 9.31364C17.5496 9.04015 18.6686 8.69967 19.8429 8.87084C20.3748 8.94898 21.5417 9.94063 21.6632 10.4485C22.0497 12.0542 22.0258 13.7193 22.3644 15.3286C22.5135 16.0393 22.3074 16.257 21.5436 16.3314C19.7858 16.5026 18.514 17.5147 17.6913 19.0813C17.5993 19.2562 17.6287 19.5036 17.625 19.7176C17.6066 20.912 17.9582 22.032 18.2932 23.1595C18.3944 23.5018 18.3373 23.8944 18.3521 24.2628C17.4005 24.5623 17.2827 24.7837 17.6692 25.4367C17.9803 25.9633 18.376 25.4442 18.7146 25.5614V25.5651Z" fill="#E57817"/>
<path d="M18.7147 25.5649C18.3778 25.4477 17.9803 25.9668 17.6692 25.4402C17.2827 24.7872 17.4005 24.5639 18.3521 24.2663C18.4791 24.2123 18.6042 24.1565 18.7312 24.1025C18.9668 24.4374 18.7846 24.8988 19.0625 25.2207C19.057 25.284 19.0404 25.3416 19.011 25.3974C18.9116 25.4533 18.814 25.5091 18.7147 25.5649Z" fill="#F58D50"/>
<path d="M13.7802 10.0243C13.8501 9.96847 13.92 9.9108 13.99 9.85498C13.92 9.91266 13.8501 9.96847 13.7802 10.0243Z" fill="#FAEBCC"/>
<path d="M121.649 37.4481C121.927 37.3104 121.886 36.8806 122.291 36.7783C122.492 37.4946 122.352 38.2202 122.387 38.9309C121.87 38.5737 121.704 38.0397 121.647 37.4481H121.649Z" fill="#D32A22"/>
<path d="M10.3347 28.9236C11.6893 28.5403 13.0458 28.1663 14.0231 27.0352C15.4679 32.7562 16.9201 38.4735 18.341 44.2001C18.4294 44.5536 18.7736 45.0336 18.3889 45.3127C18.1165 45.5099 17.6968 45.2067 17.36 45.0746C13.5206 43.5583 10.307 41.1936 7.79471 37.88C7.66771 37.7107 7.50574 37.5674 7.36218 37.413C6.07012 35.3646 4.89953 33.2548 4.21669 30.905C4.09705 30.4938 3.97006 30.0864 3.84674 29.6752C5.19034 29.664 6.53209 29.6529 7.87569 29.6417C7.23518 30.0361 6.6867 30.7394 5.78115 30.1534C5.46274 29.9468 4.94923 29.7961 4.7983 30.3413C4.6713 30.7971 4.60689 31.3608 4.87929 31.7869C5.54372 32.8269 5.81244 34.0344 6.48976 35.0986C7.3585 36.4623 8.14993 37.8521 9.36837 38.9256C9.81931 39.3238 9.84691 40.0735 10.3936 40.2894C11.2402 40.6243 11.8421 41.2978 12.501 41.8299C13.9955 43.0355 15.7661 43.7127 17.3453 44.7397C17.7318 44.9927 18.1165 44.7639 17.9563 44.3471C17.6637 43.5899 17.9085 42.5964 17.487 42.0792C16.5097 40.8829 16.7968 39.3833 16.2704 38.0754C15.6465 36.5256 15.455 34.7227 15.1182 33.026C14.774 31.2901 14.0636 29.6659 13.8409 27.8277C11.993 29.0854 10.0641 29.8352 7.87017 29.6492C8.64688 29.251 9.58003 29.3924 10.3383 28.9254L10.3347 28.9236Z" fill="#D3843C"/>
<path d="M34.709 22.9811C36.8919 22.7429 38.7177 23.8964 40.6631 24.5681C40.873 24.6406 41.1288 24.8658 41.1417 25.1876C39.0324 24.3448 36.8753 23.649 34.7071 22.9811H34.709Z" fill="#DE7A29"/>
<path d="M41.3221 25.206C41.9534 25.0534 42.3914 25.539 42.927 25.7083C43.065 25.753 43.1994 25.9353 43.3135 25.9167C44.2099 25.7642 44.532 26.367 44.8191 27.033C43.7056 26.3223 42.4025 25.9856 41.3239 25.2079L41.3221 25.206Z" fill="#DE7A29"/>
<path d="M7.86649 29.6452C10.0623 29.8312 11.9893 29.0814 13.8372 27.8237C14.0599 29.6638 14.7722 31.2861 15.1145 33.022C15.4495 34.7187 15.6409 36.5216 16.2667 38.0714C16.7931 39.3793 16.506 40.8789 17.4833 42.0752C17.9048 42.5924 17.66 43.5859 17.9527 44.3431C18.1128 44.7599 17.7281 44.9868 17.3416 44.7357C15.7643 43.7087 13.9937 43.0315 12.4973 41.8259C11.8384 41.2956 11.2365 40.6203 10.3899 40.2854C9.84323 40.0695 9.81562 39.3198 9.36469 38.9216C8.14625 37.8481 7.35482 36.4602 6.48608 35.0946C5.80876 34.0304 5.54004 32.821 4.8756 31.7829C4.6032 31.3568 4.66762 30.7931 4.79462 30.3373C4.94554 29.794 5.45906 29.9447 5.77747 30.1494C6.68302 30.7354 7.22966 30.0321 7.87201 29.6377L7.86649 29.6414V29.6452Z" fill="#E57818"/>
</g>
<defs>
<clipPath id="clip0_300_155">
<rect width="170" height="49" fill="white"/>
</clipPath>
</defs>
</svg>
