<svg width="204" height="44" viewBox="0 0 204 44" fill="none" xmlns="http://www.w3.org/2000/svg">
<g clip-path="url(#clip0_300_88)">
<path d="M160.978 43.9998C160.382 43.7928 160.492 43.2677 160.492 42.8099C160.487 33.2416 160.497 23.6734 160.47 14.1051C160.467 13.1584 160.833 12.9515 161.659 12.9566C167.333 12.9851 173.006 12.9903 178.68 12.9592C179.556 12.954 179.819 13.2515 179.834 14.1465C179.891 17.6257 179.917 17.6257 176.546 17.6257C173.502 17.6257 170.455 17.667 167.41 17.605C166.351 17.5843 165.906 17.8429 165.968 19.0328C166.061 20.8384 166.056 22.6542 165.968 24.4598C165.911 25.6341 166.251 26.0532 167.428 26.0195C170.137 25.9419 172.851 26.0558 175.562 25.973C176.737 25.9368 177.248 26.2342 177.115 27.5302C177.022 28.42 177.135 29.3331 177.157 30.2359L177.087 30.3006L177.112 30.3937C176.489 30.4247 175.865 30.4816 175.242 30.4842C172.53 30.4946 169.819 30.5204 167.107 30.4764C166.241 30.4635 165.938 30.7481 165.961 31.6534C166.011 33.7642 165.993 35.8775 165.966 37.9883C165.956 38.7022 166.093 39.1161 166.915 39.1083C171.168 39.0643 175.42 39.0592 179.674 39.0411C180.194 39.4187 179.879 40.0421 180.079 40.5129C179.937 41.3458 179.942 42.1762 180.079 43.0091C179.937 43.3324 180.037 43.7644 179.671 43.992L160.978 44.005V43.9998Z" fill="#FBE90C"/>
<path d="M182.508 17.8666C182.42 17.8433 182.33 17.8201 182.242 17.7968C182.225 16.2577 182.21 14.7186 182.192 13.1795C182.265 13.1381 182.288 13.0786 182.257 12.9984C189.148 12.9933 196.038 12.9855 202.928 12.9803C203.299 12.9803 203.682 12.9389 204 13.2079C203.987 14.7264 203.977 16.2473 203.965 17.7657C203.877 17.7968 203.79 17.8278 203.702 17.8589C201.624 17.8433 199.543 17.8796 197.468 17.7916C196.364 17.745 195.975 18.0477 195.983 19.2738C196.038 26.9253 196.013 34.5768 196.003 42.2283C196.003 42.8181 196.133 43.4389 195.758 43.9769C193.985 43.9769 192.215 43.9769 190.442 43.9769C190.4 43.9019 190.345 43.889 190.274 43.9329L190.224 43.8915C190.217 42.8594 190.202 41.8299 190.202 40.7978C190.199 33.5757 190.184 26.351 190.214 19.1289C190.219 18.1719 190.042 17.7399 188.99 17.7864C186.832 17.8847 184.666 17.8433 182.505 17.8614L182.508 17.8666Z" fill="#FBE90C"/>
<path d="M36.5246 43.9692C35.4405 43.964 34.3538 43.9045 33.2747 43.9666C32.2257 44.0261 31.9803 43.7105 32.3308 42.6499C33.9833 37.6421 35.5757 32.6109 37.1906 27.5901C38.6202 23.1384 40.0799 18.697 41.4595 14.2271C41.7524 13.2804 42.1805 12.9053 43.1395 12.9545C44.5115 13.0243 45.8936 13.0424 47.2656 12.9545C48.2947 12.8872 48.7403 13.3244 49.0458 14.2892C51.0087 20.4637 53.0042 26.6278 55.0222 32.7842C55.5681 34.4475 55.9762 36.1625 56.7298 37.7481L56.7648 37.8231C56.7724 38.3638 56.9276 38.8526 57.2255 39.2976L57.2581 39.3726C57.4233 40.6582 57.9666 41.8274 58.3322 43.0483C58.5525 43.7803 58.3397 43.9562 57.6762 43.9459C56.0563 43.9226 54.4389 43.9381 52.8189 43.9381C52.7188 43.7519 52.6186 43.5682 52.521 43.382C52.5711 43.1828 52.551 43.0017 52.3733 42.8724C52.3357 42.7819 52.3007 42.6913 52.2631 42.6008C51.9326 40.7358 51.1615 39.0156 50.6332 37.2153C50.4604 36.6307 50.0573 36.5531 49.5716 36.5531C46.3267 36.5582 43.0844 36.5634 39.8395 36.5531C39.2762 36.5531 38.8981 36.7134 38.7154 37.3239C38.0844 39.4528 37.4259 41.5739 36.7775 43.695C36.6923 43.7855 36.6072 43.876 36.5221 43.9692H36.5246ZM44.7669 18.878H44.4965C43.1795 23.0349 41.8601 27.1917 40.5531 31.3512C40.3528 31.9901 40.7634 32.0548 41.2366 32.0548C43.485 32.0496 45.7308 32.0367 47.9767 32.0677C48.7804 32.0806 48.8781 31.7676 48.6352 31.0615C48.2321 29.8871 47.8991 28.6895 47.5235 27.5073C46.6072 24.6283 45.6833 21.7545 44.7644 18.8755L44.7669 18.878Z" fill="#FBE90C"/>
<path d="M84.4813 13.0109C83.1368 15.7865 81.4142 18.3344 79.8945 21.0013C78.943 22.6697 77.9941 24.3459 76.9476 25.9523C76.3942 26.8007 76.4568 27.4577 76.9275 28.301C79.574 33.0373 82.1779 37.7968 84.7893 42.5538C85.5504 43.9377 85.5404 43.9454 83.9706 43.9532C82.7187 43.9584 81.4668 43.8989 80.22 43.9713C79.4363 44.0179 79.0157 43.7049 78.6526 43.0272C76.8599 39.6748 75.0022 36.356 73.227 32.9907C72.6737 31.9431 72.3757 32.1268 71.8775 33.0088C70.0522 36.2448 68.1544 39.4394 66.3517 42.6883C65.836 43.6169 65.2676 44.1032 64.191 43.9765C63.3673 43.8808 62.5235 43.9118 61.6923 43.9713C60.5706 44.0489 60.6382 43.5962 61.1039 42.8176C62.4609 40.5465 63.7929 38.2573 65.1299 35.9732C65.2376 35.7895 65.3127 35.5904 65.4028 35.3989C66.8024 33.4201 67.8565 31.2188 69.1809 29.196C69.8319 28.2053 69.8344 27.4345 69.246 26.4024C66.9301 22.3231 64.7168 18.1818 62.4334 14.0818C61.9627 13.236 62.1154 12.9514 63.0518 12.9773C64.4238 13.0135 65.8009 13.0187 67.173 12.9773C67.889 12.954 68.3197 13.2205 68.6577 13.8775C69.5916 15.7011 70.5805 17.4963 71.557 19.2967C72.223 20.5253 72.904 21.7463 73.6852 23.1664C74.8745 21.0867 75.931 19.1932 77.0352 17.3308C77.879 15.9106 78.3096 13.968 79.6791 13.2179C81.0412 12.4703 82.8614 13.0575 84.4788 13.0187L84.4813 13.0109Z" fill="#FBE90C"/>
<path d="M108.334 28.2289C108.903 31.2088 110.102 33.9843 110.941 36.8763C111.474 38.7154 112.135 40.5158 112.729 42.3394C113.182 43.7362 113.174 43.744 111.682 43.744C107.068 43.7466 102.456 43.7466 97.8413 43.7492C97.5108 43.7492 97.1778 43.7724 96.8473 43.7828C96.7597 43.6638 96.6695 43.5448 96.5819 43.4258C96.6771 43.1878 96.7847 42.955 96.8623 42.7145C99.3085 35.0914 101.742 27.4658 104.206 19.8505C104.389 19.284 104.351 18.5339 105.085 18.27L105.1 18.358C105.625 20.1919 106.156 22.0259 106.89 23.7875C106.765 24.3307 106.977 24.7549 107.333 25.13C107.31 25.2102 107.33 25.28 107.388 25.3369C107.586 26.3406 107.699 27.3778 108.332 28.2289H108.334Z" fill="#FBE90C"/>
<path d="M87.4708 13.4742C87.5034 8.30336 88.958 4.2836 91.9375 0.874315C92.1578 0.620817 92.3957 0.369906 92.6636 0.175902C93.0592 -0.111223 93.4548 -0.0387953 93.7878 0.320758C94.1007 0.659617 94.0456 1.0321 93.8078 1.37872C93.615 1.65809 93.3821 1.909 93.1643 2.16767C87.8414 8.49995 87.8564 17.4396 93.2019 23.7512C93.257 23.8159 93.312 23.8805 93.3646 23.9478C93.7727 24.4419 94.3185 24.9773 93.6951 25.6085C93.0567 26.2577 92.5684 25.6654 92.1253 25.2024C90.9135 23.9323 89.972 22.4527 89.2109 20.8696C88.0091 18.3631 87.4333 15.6884 87.4683 13.4742H87.4708Z" fill="#FBE90C"/>
<path d="M91.5844 12.8458C91.6094 9.33825 92.7987 6.29886 95.0571 3.69663C95.4827 3.20515 96.011 2.67488 96.637 3.29052C97.1903 3.83631 96.7922 4.39246 96.3766 4.85806C92.6185 9.06665 92.0651 15.9085 96.2113 20.7431C96.3741 20.9345 96.5018 21.1621 96.632 21.382C96.8999 21.8269 96.9875 22.2848 96.5193 22.6391C96.0711 22.978 95.663 22.815 95.305 22.427C93.8127 20.8103 92.7136 18.9531 92.1352 16.7983C91.7897 15.5127 91.5894 14.1909 91.5869 12.8458H91.5844Z" fill="#FBE90C"/>
<path d="M117.864 16.2654L117.786 16.3275L117.816 16.4258C117.538 16.9225 117.373 17.4553 117.325 18.027L117.298 18.0787C117.098 18.1848 117.08 18.3658 117.118 18.5676L117.09 18.6245C116.877 18.7047 116.835 18.878 116.865 19.085L116.84 19.1315C116.617 19.2143 116.589 19.3954 116.619 19.6049L116.592 19.654C116.376 19.7213 116.316 19.8842 116.341 20.0989L116.314 20.1403C116.164 20.1403 116.124 20.2257 116.161 20.3654L116.091 20.399L116.096 20.4792C115.615 20.8775 115.285 21.3949 114.997 21.9459C114.912 21.9588 114.869 22.0079 114.874 22.0985C114.671 22.1166 114.601 22.2459 114.609 22.4399L114.579 22.4735C114.429 22.4684 114.348 22.5486 114.333 22.7012C113.933 22.7348 113.532 22.7684 113.134 22.8021C113.041 22.696 112.949 22.5899 112.856 22.4839C112.866 22.1502 112.876 21.8191 112.886 21.4854L112.904 21.4621C113.127 21.3742 113.274 21.219 113.312 20.9681L113.384 20.9448V20.8672C113.582 20.8232 113.675 20.6991 113.657 20.4895L113.695 20.4404C113.853 20.4481 113.908 20.3628 113.883 20.2102L113.923 20.1636C114.066 20.1791 114.111 20.1093 114.081 19.9722C114.158 19.9593 114.188 19.9127 114.171 19.8325C114.576 19.5506 114.807 19.1496 114.897 18.6581L114.919 18.6168C115.137 18.534 115.17 18.3607 115.132 18.1537L115.195 18.1305L115.177 18.0632C115.618 17.5666 115.796 16.9638 115.831 16.3042C115.868 16.1646 115.908 16.0275 115.946 15.8878C116.652 13.865 116.639 11.8499 115.913 9.83486L115.893 9.78054C115.836 9.06661 115.643 8.407 115.167 7.85861L115.175 7.76549L115.1 7.71376C114.924 6.5963 113.848 6.08154 113.465 5.08048C113.234 4.47778 112.493 3.93715 113.187 3.28789C113.938 2.5843 114.328 3.43275 114.792 3.86214C114.879 3.94492 114.994 3.99665 115.095 4.06132L115.102 4.14927L115.18 4.18289C115.147 4.32516 115.202 4.38724 115.342 4.37172L115.39 4.42087C115.495 4.84768 115.715 5.18395 116.096 5.39865L116.141 5.46332C116.614 6.73598 117.3 7.91293 117.653 9.25026C118.269 11.5861 118.187 13.9193 117.869 16.2732L117.864 16.2654Z" fill="#FBE90C"/>
<path d="M101.569 12.9854C101.547 11.0325 102.944 9.5477 104.822 9.52183C106.72 9.49596 108.127 10.9212 108.149 12.8897C108.169 14.8349 106.77 16.3456 104.914 16.3792C103.087 16.4128 101.589 14.8944 101.569 12.9854Z" fill="#FBE90C"/>
<path d="M95.6956 12.869C95.7832 10.5151 96.4968 8.40953 98.0466 6.64798C98.4472 6.19271 98.9054 5.69089 99.5188 6.22634C100.107 6.73851 99.7942 7.28172 99.4161 7.80424C96.7972 11.392 96.7847 14.4547 99.361 18.0243C99.7166 18.5184 100.15 19.0409 99.5313 19.5919C98.8453 20.1998 98.3971 19.5919 97.974 19.1237C96.5844 17.5794 95.7006 15.135 95.6956 12.8716V12.869Z" fill="#FBE90C"/>
<path d="M113.069 8.5285C113.107 8.62421 113.147 8.71991 113.184 8.81562C113.137 8.95272 113.162 9.0536 113.317 9.08723C113.352 9.16483 113.387 9.24243 113.425 9.32262C113.97 11.2549 114.133 13.2156 113.85 15.2126L113.843 15.241C113.572 15.7066 113.385 16.2033 113.362 16.7517L113.334 16.8034C113.129 16.8862 113.094 17.0491 113.134 17.2509L113.062 17.2793L113.077 17.3595C112.866 17.4242 112.831 17.5872 112.856 17.7838L112.826 17.8277C112.481 18.0812 112.24 18.4097 112.14 18.8391L112.095 18.8909C111.957 18.8779 111.905 18.9452 111.935 19.0823L111.855 19.103L111.837 19.1832C111.71 19.1573 111.657 19.2039 111.699 19.3384L111.624 19.3746V19.4599C111.389 19.5065 111.214 19.6333 111.114 19.8635L111.101 19.8686C110.868 19.8738 110.635 19.8816 110.405 19.8868L110.367 19.8712C110.242 19.76 110.117 19.6488 109.989 19.535L109.977 19.4936C109.957 19.1056 109.939 18.7201 109.922 18.3321C109.974 18.283 109.974 18.2313 109.922 18.1821C110.097 18.1562 110.195 18.0579 110.205 17.8717C111.647 17.1914 111.835 15.673 112.088 14.3926C112.586 11.8628 111.862 9.56318 110.21 7.59469C109.839 7.15495 109.749 6.64537 110.245 6.23149C110.971 5.62362 111.336 6.46171 111.85 6.70228L111.882 6.73849C111.867 6.89369 111.93 6.97647 112.088 6.97129L112.12 7.0101C112.098 7.15754 112.14 7.25583 112.305 7.25325L112.348 7.31015C112.386 7.62832 112.533 7.87147 112.809 8.02667L112.831 8.05771C112.811 8.26982 112.864 8.44313 113.079 8.52591L113.069 8.5285Z" fill="#FBE90C"/>
<path d="M0 43.3819C0.332998 42.9629 0.165247 42.4714 0.165247 42.0162C0.175262 32.9213 0.165247 23.8264 0.175262 14.7315C0.175262 14.1314 0.257886 13.5313 0.302953 12.9312C2.72157 12.9363 5.14019 12.9441 7.5563 12.9493C8.37001 12.9493 8.81067 13.1924 9.10361 14.1676C10.8688 20.0446 12.7566 25.8828 14.6093 31.734C14.6569 31.8866 14.7696 32.0211 14.9774 32.3832C15.5107 30.707 15.9964 29.2093 16.4621 27.7065C17.8467 23.2392 19.2563 18.7771 20.5808 14.2918C20.8937 13.2312 21.3845 12.8898 22.4335 12.9363C24.389 13.0243 26.3519 12.9958 28.3123 12.9467C29.1911 12.9234 29.5767 13.1433 29.5742 14.1547C29.5417 23.6764 29.5392 33.1955 29.5642 42.7172C29.5642 43.6665 29.3038 44.039 28.3574 43.9717C27.3208 43.8967 26.2668 43.8864 25.2327 43.9743C24.1962 44.0648 23.9834 43.6096 23.9859 42.6396C24.0034 34.6699 23.9784 26.7002 23.9658 18.7306C23.9658 18.4719 23.9458 18.2132 23.7906 17.9106C22.8542 20.9344 21.9128 23.9583 20.9839 26.9848C19.3965 32.153 17.7766 37.3135 16.2618 42.505C15.9188 43.682 15.3855 43.9924 14.2413 43.9976C13.1171 44.0028 12.7541 43.5242 12.4536 42.5335C10.1577 34.9777 7.81168 27.4374 5.47819 19.8946C5.30543 19.3384 5.09011 18.7978 4.69702 18.2856C4.69702 23.7436 4.69702 29.2016 4.69702 34.6621C4.69702 37.3342 4.65446 40.0037 4.71205 42.6758C4.73458 43.7208 4.35651 44.0493 3.40259 43.9795C2.57385 43.9174 1.73509 43.9795 0.901348 43.9536C0.523282 43.9407 0.00500749 44.07 0 43.3871L0 43.3819Z" fill="#FBE90C"/>
<path d="M158.119 43.9173C156.329 43.8966 154.541 43.8759 152.751 43.8552C149.108 37.3625 145.43 30.888 141.604 24.5066C141.647 24.3746 141.612 24.2919 141.469 24.2763L141.444 24.2375C141.459 24.0384 141.394 23.8883 141.201 23.8211L141.214 23.7512L141.149 23.7228C141.189 23.5935 141.154 23.5081 141.016 23.4848L141.021 23.415L140.953 23.3994C140.813 22.7864 140.462 22.3285 139.934 21.7983V43.6793C139.837 43.7802 139.739 43.8785 139.641 43.9793C138.319 43.969 137 43.9612 135.678 43.9509C135.463 43.506 135.52 43.0248 135.52 42.5541C135.518 33.1617 135.535 23.7693 135.493 14.377C135.488 13.2259 135.803 12.8405 136.907 12.9388C137.941 13.0319 139 13.0578 140.029 12.9388C141.221 12.7965 141.81 13.3604 142.373 14.3563C145.588 20.0419 148.863 25.6939 152.117 31.3562C152.245 31.5786 152.365 31.8063 152.511 32.0158C152.741 32.3443 152.869 32.8849 153.397 32.7504C153.925 32.6133 153.837 32.0779 153.842 31.6718C153.865 30.2517 153.858 28.829 153.858 27.4063C153.858 23.0114 153.875 18.6166 153.835 14.2244C153.827 13.3061 154.03 12.9465 155.007 12.944C158.179 12.9362 158.179 12.8948 158.179 16.136C158.179 24.7963 158.179 33.454 158.174 42.1143C158.174 42.717 158.136 43.3197 158.119 43.9224V43.9173Z" fill="#FBE90C"/>
<path d="M117.438 25.5384C117.323 25.6393 117.208 25.7376 117.093 25.8385C116.775 25.8462 116.454 25.8514 116.136 25.8592C116.033 25.7686 115.928 25.6781 115.826 25.5875C115.695 25.0366 115.941 24.5632 116.114 24.0769L116.164 24.0252C116.304 24.0381 116.371 23.976 116.354 23.826L116.409 23.7639C116.88 23.482 117.188 23.0655 117.358 22.5352L117.418 22.468C117.911 22.0955 118.222 21.5988 118.357 20.9806L118.425 20.9625L118.412 20.8927C121.254 16.8238 121.246 9.19037 118.394 4.95333L118.407 4.88608L118.344 4.86797C118.322 4.54463 118.197 4.28596 117.899 4.14369L117.866 4.09454C117.846 3.76603 117.696 3.52547 117.401 3.39096L117.406 3.3237L117.343 3.31336C117.328 3.0521 117.218 2.86844 116.955 2.80895L116.907 2.7598C116.93 2.55545 116.84 2.44422 116.644 2.42353C116.652 2.33558 116.617 2.27608 116.537 2.24504V2.13899H116.437C116.422 2.04845 116.374 1.9993 116.289 1.98896L116.284 1.87773L116.174 1.86738C116.181 1.79237 116.149 1.74839 116.076 1.74322C116.106 1.60354 116.059 1.52335 115.911 1.52335L115.891 1.49748C115.836 0.998246 115.62 0.436929 116.214 0.12135C116.84 -0.209749 117.253 0.245512 117.611 0.654213C120.117 3.50736 121.694 6.81835 122.135 10.6674C122.541 14.2138 121.902 17.6024 120.64 20.8901L120.58 20.9108L120.595 20.9729C120.382 21.0453 120.35 21.2134 120.377 21.4152L120.352 21.4592C120.069 21.6169 119.949 21.8756 119.932 22.1964L119.864 22.2326L119.874 22.3102C119.676 22.3542 119.616 22.4887 119.656 22.6827L119.584 22.7189L119.589 22.7991C119.388 22.843 119.328 22.9853 119.341 23.1819L119.303 23.2336C119.151 23.2388 119.113 23.3293 119.138 23.469L119.088 23.5337C118.948 23.5259 118.9 23.5958 118.928 23.7329L118.86 23.7562V23.8312C118.51 24.0485 118.272 24.3589 118.152 24.765L118.084 24.7701L118.079 24.84C117.949 24.8193 117.891 24.8736 117.914 25.0107L117.839 25.0236L117.826 25.1012C117.691 25.0806 117.648 25.1452 117.678 25.2746C117.606 25.2797 117.573 25.3211 117.578 25.3961C117.461 25.3677 117.411 25.4117 117.443 25.5384H117.438Z" fill="#FBE90C"/>
</g>
<defs>
<clipPath id="clip0_300_88">
<rect width="204" height="44" fill="white"/>
</clipPath>
</defs>
</svg>
