<svg width="40" height="40" viewBox="0 0 40 40" fill="none" xmlns="http://www.w3.org/2000/svg">
<rect width="40" height="40" rx="6" fill="#D2F6D3"/>
<g clip-path="url(#clip0_468_296)">
<path d="M24.6895 34.0001C24.2182 33.7692 24.1301 33.3755 24.1719 32.8832C24.3418 30.8607 24.4863 28.8367 24.6539 26.8142C24.6717 26.5997 24.6107 26.5363 24.4183 26.4768C23.4264 26.1708 22.6392 25.5744 22.0397 24.7142C21.9601 24.6007 21.8187 24.4919 21.6866 24.4606C19.7685 23.9988 17.8464 23.5511 15.9259 23.0995C15.3936 22.9743 15.2051 22.734 15.2036 22.1736C15.2028 21.5685 15.202 20.9635 15.2036 20.3577C15.2051 19.8419 15.4037 19.593 15.9058 19.4748C17.8078 19.0263 19.7082 18.5739 21.6125 18.1348C21.8265 18.0855 21.9609 17.9869 22.0876 17.8085C22.976 16.5616 24.1835 15.9143 25.7046 15.9026C27.1592 15.8909 28.6139 15.8987 30.0686 15.9002C31.6376 15.9018 32.6844 16.9491 32.689 18.5332C32.6952 20.3679 32.6952 22.2033 32.689 24.0387C32.6836 25.6096 31.6407 26.6623 30.0948 26.6709C29.9241 26.6717 29.7526 26.6709 29.6259 26.6709C29.6259 27.3691 29.6089 28.0391 29.6298 28.7075C29.6754 30.1806 29.7333 31.6528 29.7997 33.1251C29.819 33.5587 29.6035 33.8131 29.2574 33.9986H28.8526C28.4331 33.806 28.2972 33.4632 28.2825 33.0131C28.2168 30.9953 28.1311 28.9783 28.053 26.9613C28.0492 26.8682 28.0422 26.775 28.0368 26.6866H26.1843C26.1704 26.7563 26.1526 26.8126 26.148 26.869C25.9889 28.9298 25.8228 30.9899 25.6783 33.0515C25.6474 33.4929 25.5037 33.8193 25.0935 33.9986H24.6887L24.6895 34.0001ZM28.0052 17.4242H27.707C27.0518 17.4242 26.3967 17.4249 25.7409 17.4242C24.5991 17.4218 23.7423 17.9376 23.1707 18.9222C22.9729 19.2635 22.7187 19.4451 22.3433 19.5304C20.6445 19.9186 18.9496 20.3233 17.2539 20.724C16.6984 20.8555 16.7108 20.8586 16.6977 21.4504C16.693 21.6734 16.7703 21.7431 16.9758 21.79C18.758 22.201 20.5356 22.633 22.3193 23.0384C22.7172 23.1292 22.9837 23.3171 23.1877 23.6803C23.6311 24.4692 24.3094 24.9756 25.2009 25.1001C25.7308 25.1744 26.2762 25.14 26.8155 25.1478C27.2071 25.1533 27.5988 25.1486 28.0044 25.1486V17.4242H28.0052ZM29.5378 17.4437V25.1486C29.6954 25.1486 29.8376 25.1486 29.9797 25.1486C30.8604 25.1486 31.1941 24.8073 31.1941 23.9057C31.1941 22.1587 31.1941 20.4117 31.1941 18.6647C31.1941 18.5481 31.1941 18.4299 31.1833 18.3141C31.1385 17.8664 30.8465 17.5157 30.41 17.4516C30.1304 17.4101 29.8399 17.4437 29.5386 17.4437H29.5378Z" fill="#36AE73"/>
<path d="M12.0254 34.0001C11.6801 33.9218 11.3302 33.86 10.991 33.7622C8.59387 33.0687 6.89354 30.8145 6.86109 28.2927C6.85955 28.1588 6.87114 28.0156 6.91517 27.8912C7.02951 27.5663 7.34701 27.3895 7.70006 27.4286C8.02838 27.4654 8.28486 27.7104 8.33276 28.0524C8.38606 28.4281 8.38452 28.8171 8.48031 29.181C8.93842 30.9257 10.0524 32.0371 11.7929 32.3885C13.5527 32.7447 14.9657 32.0637 16.0333 30.6345C16.2581 30.334 16.4389 29.9943 16.6058 29.6554C17.2524 28.3483 17.8843 27.0333 18.5247 25.7231C18.7325 25.2981 19.0863 25.122 19.4603 25.241C19.933 25.392 20.1177 25.8828 19.8751 26.3837C19.2061 27.7667 18.5348 29.1482 17.8549 30.5265C17.7136 30.813 17.5506 31.0932 17.3675 31.3546C16.3501 32.8088 15.0012 33.7309 13.229 33.9571C13.1927 33.9618 13.1587 33.9852 13.124 34.0001H12.0254Z" fill="#36AE73"/>
<path d="M17.1365 7.33595C19.8898 7.34221 22.2568 9.39366 22.7095 12.1668C22.7906 12.6653 22.5403 13.0669 22.1046 13.1373C21.6666 13.2085 21.3174 12.9213 21.2247 12.4149C20.8856 10.5622 19.5599 9.22695 17.7344 8.899C15.5142 8.5006 13.2236 10.2601 13.0112 12.5362C12.9757 12.9142 12.9687 13.2962 12.9718 13.6766C12.9788 14.5673 12.6867 15.3382 12.1089 16.0035C12.0007 16.128 11.8903 16.2517 11.7883 16.3808C11.3943 16.8762 11.5504 17.4531 12.1413 17.6668C13.073 18.0041 13.6648 18.6498 13.8162 19.6462C13.9962 20.8304 13.4075 21.855 12.3012 22.3152C11.7388 22.5492 11.3333 22.9155 11.1664 23.5127C10.8574 24.6148 11.6245 25.6558 12.7918 25.7348C13.3658 25.7739 13.7057 26.2537 13.5188 26.7625C13.3975 27.0912 13.0923 27.2838 12.6813 27.2501C11.3078 27.1358 10.3097 26.4533 9.81834 25.1423C9.33165 23.843 9.6059 22.6533 10.5723 21.6718C10.8698 21.3697 11.2692 21.156 11.6508 20.9596C12.1089 20.724 12.36 20.4391 12.3561 20.0227C12.3515 19.5891 12.1004 19.276 11.6098 19.0936C10.0532 18.516 9.575 16.6602 10.6542 15.3844C10.7423 15.2803 10.8257 15.1731 10.92 15.0753C11.3263 14.6518 11.494 14.1454 11.4754 13.5576C11.4461 12.6434 11.5426 11.748 11.8934 10.891C12.7825 8.71819 14.822 7.33125 17.1388 7.33595H17.1365Z" fill="#36AE73"/>
<path d="M24.5674 13.2264C24.5952 9.40291 21.9416 6.22203 18.2142 5.6037C14.3685 4.9658 10.5051 7.73498 9.82992 11.6258C9.74339 12.1236 9.7349 12.6339 9.6731 13.1364C9.60434 13.6952 9.04889 13.9895 8.5792 13.7257C8.28486 13.5606 8.18907 13.2945 8.19139 12.965C8.20066 11.7894 8.4301 10.6599 8.87739 9.57667C10.3398 6.04044 13.8138 3.82228 17.5907 4.01091C21.8041 4.22146 25.4079 7.55809 25.9626 11.787C26.0484 12.4413 26.0553 13.1098 26.0576 13.7711C26.0592 14.2188 25.7069 14.5405 25.3029 14.5358C24.8803 14.5304 24.5744 14.193 24.5674 13.725C24.5651 13.559 24.5674 13.3931 24.5674 13.2272V13.2264Z" fill="#36AE73"/>
</g>
<defs>
<clipPath id="clip0_468_296">
<rect width="25.8333" height="30" fill="white" transform="translate(6.86108 4)"/>
</clipPath>
</defs>
</svg>
